<svg width="32" height="32" xmlns="http://www.w3.org/2000/svg">

 <g>
  <title>background</title>
  <rect fill="none" id="canvas_background" height="402" width="582" y="-1" x="-1"/>
 </g>
 <g>
  <title>Layer 1</title>
  <path id="svg_2" fill="#ffffff" d="m16,9c-0.5522,0 -1,-0.4478 -1,-1l0,-4c0,-0.5513 -0.4487,-1 -1,-1l-8,0c-0.5522,0 -1,-0.4478 -1,-1s0.4478,-1 1,-1l8,0c1.6543,0 3,1.3457 3,3l0,4c0,0.5522 -0.4478,1 -1,1z"/>
  <path id="svg_4" fill="#000d56" d="m31,10l0,12c0,1.65 -1.35,3 -3,3l-24,0c-1.65,0 -3,-1.35 -3,-3l0,-12c0,-1.65 1.35,-3 3,-3l24,0c1.65,0 3,1.35 3,3z"/>
  <path id="svg_8" fill="#3cc4f2" d="m13.5,14l0,0c0.8284,0 1.5,-0.6716 1.5,-1.5l0,0c0,-0.8284 -0.6716,-1.5 -1.5,-1.5l0,0c-0.8284,0 -1.5,0.6716 -1.5,1.5l0,0c0,0.8284 0.6716,1.5 1.5,1.5z"/>
  <path id="svg_10" fill="#ff6e00" d="m18.5,14l0,0c0.8284,0 1.5,-0.6716 1.5,-1.5l0,0c0,-0.8284 -0.6716,-1.5 -1.5,-1.5l0,0c-0.8284,0 -1.5,0.6716 -1.5,1.5l0,0c0,0.8284 0.6716,1.5 1.5,1.5z"/>
  <path id="svg_12" fill="#ffff00" d="m23.5,14l0,0c0.8284,0 1.5,-0.6716 1.5,-1.5l0,0c0,-0.8284 -0.6716,-1.5 -1.5,-1.5l0,0c-0.8284,0 -1.5,0.6716 -1.5,1.5l0,0c0,0.8284 0.6716,1.5 1.5,1.5z"/>
  <path id="svg_14" fill="#d31717" d="m8.5,14l0,0c0.8284,0 1.5,-0.6716 1.5,-1.5l0,0c0,-0.8284 -0.6716,-1.5 -1.5,-1.5l0,0c-0.8284,0 -1.5,0.6716 -1.5,1.5l0,0c0,0.8284 0.6716,1.5 1.5,1.5z"/>
  <path id="svg_17" fill="#dfb8ef" d="m13.5,18l0,0c0.8284,0 1.5,-0.6716 1.5,-1.5l0,0c0,-0.8284 -0.6716,-1.5 -1.5,-1.5l0,0c-0.8284,0 -1.5,0.6716 -1.5,1.5l0,0c0,0.8284 0.6716,1.5 1.5,1.5z"/>
  <path id="svg_19" fill="#ffaad4" d="m18.5,18l0,0c0.8284,0 1.5,-0.6716 1.5,-1.5l0,0c0,-0.8284 -0.6716,-1.5 -1.5,-1.5l0,0c-0.8284,0 -1.5,0.6716 -1.5,1.5l0,0c0,0.8284 0.6716,1.5 1.5,1.5z"/>
  <path id="svg_21" fill="#7f00ff" d="m23.5,18l0,0c0.8284,0 1.5,-0.6716 1.5,-1.5l0,0c0,-0.8284 -0.6716,-1.5 -1.5,-1.5l0,0c-0.8284,0 -1.5,0.6716 -1.5,1.5l0,0c0,0.8284 0.6716,1.5 1.5,1.5z"/>
  <path id="svg_23" fill="#00ff00" d="m8.5,18l0,0c0.8284,0 1.5,-0.6716 1.5,-1.5l0,0c0,-0.8284 -0.6716,-1.5 -1.5,-1.5l0,0c-0.8284,0 -1.5,0.6716 -1.5,1.5l0,0c0,0.8284 0.6716,1.5 1.5,1.5z"/>
  <path id="svg_25" fill="#ffffff" d="m21,22l-10,0c-0.5522,0 -1,-0.4473 -1,-1s0.4478,-1 1,-1l10,0c0.5522,0 1,0.4473 1,1s-0.4478,1 -1,1z"/>
 </g>
</svg>