<?xml version="1.0" encoding="UTF-8"?>
<svg xmlns="http://www.w3.org/2000/svg" xmlns:xlink="http://www.w3.org/1999/xlink" viewBox="0 0 200 200" width="200px" height="200px">
<g id="surface73619816">
<path style=" stroke:none;fill-rule:nonzero;fill:rgb(73.333335%,32.549021%,88.235295%);fill-opacity:1;" d="M 32 58 C 32 60.210938 30.210938 62 28 62 C 25.789062 62 24 60.210938 24 58 C 24 55.789062 25.789062 54 28 54 C 30.210938 54 32 55.789062 32 58 Z M 32 58 "/>
<path style=" stroke:none;fill-rule:nonzero;fill:rgb(31.37255%,73.333335%,88.235295%);fill-opacity:1;" d="M 158 26 C 158 27.105469 157.105469 28 156 28 C 154.894531 28 154 27.105469 154 26 C 154 24.894531 154.894531 24 156 24 C 157.105469 24 158 24.894531 158 26 Z M 158 26 "/>
<path style=" stroke:none;fill-rule:nonzero;fill:rgb(63.921571%,91.764706%,95.294118%);fill-opacity:1;" d="M 176 100 C 176 140.867188 142.867188 174 102 174 C 61.132812 174 28 140.867188 28 100 C 28 59.132812 61.132812 26 102 26 C 142.867188 26 176 59.132812 176 100 Z M 176 100 "/>
<path style=" stroke:none;fill-rule:nonzero;fill:rgb(31.37255%,73.333335%,88.235295%);fill-opacity:1;" d="M 176 30 C 176 34.417969 172.417969 38 168 38 C 163.582031 38 160 34.417969 160 30 C 160 25.582031 163.582031 22 168 22 C 172.417969 22 176 25.582031 176 30 Z M 176 30 "/>
<path style=" stroke:none;fill-rule:nonzero;fill:rgb(73.333335%,32.549021%,88.235295%);fill-opacity:1;" d="M 180 48 C 180 50.210938 178.210938 52 176 52 C 173.789062 52 172 50.210938 172 48 C 172 45.789062 173.789062 44 176 44 C 178.210938 44 180 45.789062 180 48 Z M 180 48 "/>
<path style=" stroke:none;fill-rule:nonzero;fill:rgb(100%,65.098041%,28.235295%);fill-opacity:1;" d="M 168 152 C 168 154.210938 166.210938 156 164 156 C 161.789062 156 160 154.210938 160 152 C 160 149.789062 161.789062 148 164 148 C 166.210938 148 168 149.789062 168 152 Z M 168 152 "/>
<path style=" stroke:none;fill-rule:nonzero;fill:rgb(100%,65.098041%,28.235295%);fill-opacity:1;" d="M 36 126 C 36 130.417969 32.417969 134 28 134 C 23.582031 134 20 130.417969 20 126 C 20 121.582031 23.582031 118 28 118 C 32.417969 118 36 121.582031 36 126 Z M 36 126 "/>
<path style=" stroke:none;fill-rule:nonzero;fill:rgb(73.333335%,32.549021%,88.235295%);fill-opacity:1;" d="M 56 174 C 56 176.210938 54.210938 178 52 178 C 49.789062 178 48 176.210938 48 174 C 48 171.789062 49.789062 170 52 170 C 54.210938 170 56 171.789062 56 174 Z M 56 174 "/>
<path style=" stroke:none;fill-rule:nonzero;fill:rgb(100%,100%,100%);fill-opacity:1;" d="M 46 83 C 46 85.761719 43.761719 88 41 88 C 38.238281 88 36 85.761719 36 83 C 36 80.238281 38.238281 78 41 78 C 43.761719 78 46 80.238281 46 83 Z M 46 83 "/>
<path style=" stroke:none;fill-rule:nonzero;fill:rgb(31.37255%,73.333335%,88.235295%);fill-opacity:1;" d="M 32 142 C 32 143.105469 31.105469 144 30 144 C 28.894531 144 28 143.105469 28 142 C 28 140.894531 28.894531 140 30 140 C 31.105469 140 32 140.894531 32 142 Z M 32 142 "/>
<path style=" stroke:none;fill-rule:nonzero;fill:rgb(100%,100%,100%);fill-opacity:1;" d="M 164 68 C 164 69.105469 163.105469 70 162 70 C 160.894531 70 160 69.105469 160 68 C 160 66.894531 160.894531 66 162 66 C 163.105469 66 164 66.894531 164 68 Z M 164 68 "/>
<path style=" stroke:none;fill-rule:nonzero;fill:rgb(37.64706%,48.627451%,100%);fill-opacity:1;" d="M 58.011719 130.003906 L 58.003906 70.003906 C 58.003906 62.269531 64.269531 56 72.003906 56 L 132 56 C 139.730469 56 146 62.269531 146 70 L 146 130 C 146 137.730469 139.730469 144 132 144 L 72.011719 144 C 64.277344 144 58.011719 137.734375 58.011719 130.003906 Z M 58.011719 130.003906 "/>
<path style=" stroke:none;fill-rule:nonzero;fill:rgb(27.843139%,16.862746%,16.078432%);fill-opacity:1;" d="M 132 56.800781 C 139.277344 56.800781 145.199219 62.722656 145.199219 70 L 145.199219 130 C 145.199219 137.277344 139.277344 143.199219 132 143.199219 L 72 143.199219 C 64.722656 143.199219 58.800781 137.277344 58.800781 130 L 58.800781 70 C 58.800781 62.722656 64.722656 56.800781 72 56.800781 L 132 56.800781 M 132 54 L 72 54 C 63.164062 54 56 61.164062 56 70 L 56 130 C 56 138.835938 63.164062 146 72 146 L 132 146 C 140.835938 146 148 138.835938 148 130 L 148 70 C 148 61.164062 140.835938 54 132 54 Z M 132 54 "/>
<path style=" stroke:none;fill-rule:nonzero;fill:rgb(27.843139%,16.862746%,16.078432%);fill-opacity:1;" d="M 103 62 L 97 62 C 96.449219 62 96 61.550781 96 61 C 96 60.449219 96.449219 60 97 60 L 103 60 C 103.550781 60 104 60.449219 104 61 C 104 61.550781 103.550781 62 103 62 Z M 103 62 "/>
<path style=" stroke:none;fill-rule:nonzero;fill:rgb(27.843139%,16.862746%,16.078432%);fill-opacity:1;" d="M 131 140 L 73 140 C 66.933594 140 62 135.0625 62 129 L 62 71 C 62 64.933594 66.933594 60 73 60 L 91 60 C 91.550781 60 92 60.449219 92 61 C 92 61.550781 91.550781 62 91 62 L 73 62 C 68.039062 62 64 66.039062 64 71 L 64 129 C 64 133.960938 68.039062 138 73 138 L 131 138 C 135.960938 138 140 133.960938 140 129 L 140 121 C 140 120.449219 140.449219 120 141 120 C 141.550781 120 142 120.449219 142 121 L 142 129 C 142 135.0625 137.0625 140 131 140 Z M 131 140 "/>
<path style=" stroke:none;fill-rule:nonzero;fill:rgb(27.843139%,16.862746%,16.078432%);fill-opacity:1;" d="M 141 116 C 140.449219 116 140 115.550781 140 115 L 140 95 C 140 94.449219 140.449219 94 141 94 C 141.550781 94 142 94.449219 142 95 L 142 115 C 142 115.550781 141.550781 116 141 116 Z M 141 116 "/>
<path style=" stroke:none;fill-rule:nonzero;fill:rgb(27.843139%,16.862746%,16.078432%);fill-opacity:1;" d="M 141 82 C 140.449219 82 140 81.550781 140 81 L 140 71 C 140 66.039062 135.960938 62 131 62 L 109 62 C 108.449219 62 108 61.550781 108 61 C 108 60.449219 108.449219 60 109 60 L 131 60 C 137.0625 60 142 64.933594 142 71 L 142 81 C 142 81.550781 141.550781 82 141 82 Z M 141 82 "/>
<path style=" stroke:none;fill-rule:nonzero;fill:rgb(99.215686%,98.823529%,93.725491%);fill-opacity:1;" d="M 121.496094 74.964844 L 121.496094 114.710938 C 121.496094 118.785156 118.613281 122.261719 114.625 123.046875 L 112.101562 123.515625 C 108.746094 124.171875 105.460938 122.070312 104.699219 118.699219 C 103.910156 115.285156 106.054688 111.871094 109.46875 111.085938 C 109.511719 111.085938 111.761719 110.640625 113.816406 110.238281 C 115.8125 109.855469 117.253906 108.097656 117.253906 106.078125 L 117.253906 87.796875 C 117.253906 86.863281 116.382812 86.164062 115.449219 86.355469 L 94.371094 91.398438 C 93.394531 91.613281 92.695312 92.480469 92.695312 93.476562 L 92.695312 121.453125 C 92.695312 125.527344 89.808594 129.003906 85.820312 129.789062 L 83.296875 130.257812 C 79.945312 130.914062 76.660156 128.8125 75.894531 125.460938 C 75.109375 122.027344 77.253906 118.613281 80.667969 117.824219 C 80.710938 117.824219 82.957031 117.378906 85.015625 116.976562 C 87.011719 116.597656 88.453125 114.835938 88.453125 112.820312 L 88.453125 82.515625 C 88.453125 81.03125 89.492188 79.714844 90.976562 79.417969 L 118.929688 72.886719 C 120.242188 72.609375 121.496094 73.628906 121.496094 74.964844 Z M 121.496094 74.964844 "/>
<path style=" stroke:none;fill-rule:nonzero;fill:rgb(27.843139%,16.862746%,16.078432%);fill-opacity:1;" d="M 82.234375 130.75 C 79.023438 130.75 76.167969 128.558594 75.429688 125.3125 C 74.5625 121.53125 76.929688 117.75 80.707031 116.882812 C 80.90625 116.847656 81.996094 116.632812 83.304688 116.375 L 85.027344 116.039062 C 86.644531 115.730469 87.816406 114.316406 87.816406 112.671875 L 87.816406 82.773438 C 87.816406 80.933594 89.121094 79.339844 90.914062 78.980469 L 118.527344 72.527344 C 119.386719 72.34375 120.253906 72.5625 120.925781 73.109375 C 121.597656 73.652344 121.980469 74.457031 121.980469 75.308594 L 121.980469 114.53125 C 121.980469 118.882812 118.867188 122.648438 114.585938 123.488281 L 112.082031 123.953125 C 108.339844 124.6875 104.742188 122.34375 103.898438 118.628906 C 103.480469 116.808594 103.796875 114.925781 104.796875 113.335938 C 105.792969 111.746094 107.351562 110.636719 109.179688 110.21875 C 109.378906 110.183594 110.4375 109.976562 111.722656 109.722656 L 113.496094 109.375 C 115.117188 109.066406 116.289062 107.652344 116.289062 106.007812 L 116.289062 87.96875 C 116.289062 87.683594 116.125 87.511719 116.03125 87.429688 C 115.855469 87.289062 115.628906 87.230469 115.40625 87.277344 L 94.585938 92.265625 C 93.953125 92.402344 93.503906 92.957031 93.503906 93.585938 L 93.503906 121.1875 C 93.503906 125.539062 90.394531 129.308594 86.109375 130.148438 L 83.605469 130.609375 C 83.144531 130.707031 82.6875 130.75 82.234375 130.75 Z M 119.121094 73.964844 C 119.03125 73.964844 118.9375 73.972656 118.847656 73.992188 L 91.230469 80.445312 C 90.109375 80.671875 89.316406 81.644531 89.316406 82.773438 L 89.316406 112.675781 C 89.316406 115.035156 87.632812 117.070312 85.308594 117.511719 L 83.59375 117.851562 C 80.976562 118.363281 80.976562 118.363281 80.875 118.363281 C 78.070312 119.027344 76.207031 122.003906 76.890625 124.980469 C 77.550781 127.890625 80.378906 129.730469 83.328125 129.144531 L 85.828125 128.683594 C 89.402344 127.980469 92.003906 124.832031 92.003906 121.195312 L 92.003906 93.589844 C 92.003906 92.261719 92.949219 91.089844 94.253906 90.808594 L 115.082031 85.816406 C 115.773438 85.679688 116.457031 85.847656 116.976562 86.273438 C 117.492188 86.691406 117.785156 87.3125 117.785156 87.972656 L 117.785156 106.011719 C 117.785156 108.375 116.101562 110.40625 113.78125 110.851562 L 112.011719 111.199219 C 109.449219 111.703125 109.449219 111.703125 109.34375 111.703125 C 108.074219 112.015625 106.851562 112.886719 106.0625 114.136719 C 105.277344 115.386719 105.027344 116.863281 105.359375 118.300781 C 106.019531 121.21875 108.847656 123.066406 111.796875 122.480469 L 114.296875 122.019531 C 117.875 121.316406 120.476562 118.171875 120.476562 114.535156 L 120.476562 75.3125 C 120.476562 74.914062 120.292969 74.535156 119.972656 74.277344 C 119.726562 74.070312 119.429688 73.964844 119.121094 73.964844 Z M 119.121094 73.964844 "/>
</g>
</svg>
