<svg width="512" height="512" xmlns="http://www.w3.org/2000/svg">

 <g>
  <title>background</title>
  <rect fill="none" id="canvas_background" height="402" width="582" y="-1" x="-1"/>
 </g>
 <g>
  <title>Layer 1</title>
  <path id="svg_2" fill="#00094f" d="m256,1.712c-140.44,0 -254.288,113.852 -254.288,254.288c0,140.436 113.848,254.288 254.288,254.288c140.437,0 254.288,-113.852 254.288,-254.287c0,-140.437 -113.852,-254.289 -254.288,-254.289z"/>
  <path id="svg_3" fill="#1c004f" d="m510.288,256c0,-140.436 -113.852,-254.288 -254.288,-254.288l0,508.575c140.436,0.001 254.288,-113.851 254.288,-254.287z"/>
  <path id="svg_4" fill="#EDEDEE" d="m440.113,179.745c-9.987,-24.122 -24.548,-45.849 -43.274,-64.576c-18.723,-18.722 -40.446,-33.279 -64.569,-43.268c-24.121,-9.995 -49.777,-15.062 -76.229,-15.062c-56.668,-0.565 -111.255,23.887 -149.398,66.974l-0.08,0.095c-0.493,0.616 -0.966,1.212 -1.424,1.789c-2.093,2.639 -3.9,4.918 -6.119,7.14l-0.217,0.248c-28.154,36.815 -42.661,79.335 -41.955,122.922c0,26.469 5.068,52.125 15.062,76.255c9.999,24.139 24.558,45.865 43.271,64.576c37.62,37.619 87.635,58.337 140.832,58.337c53.199,0 103.211,-20.718 140.824,-58.337c37.619,-37.619 58.337,-87.634 58.337,-140.831c0.001,-26.483 -5.066,-52.141 -15.061,-76.262zm-124.501,-105.588c17.723,5.822 34.481,14.221 49.853,24.981c-2.397,3.161 -4.625,6.389 -6.792,9.528c-2.58,3.739 -5.24,7.594 -8.127,11.232c-32.823,-6.996 -64.606,-18.759 -94.155,-30.543c-0.053,-3.438 -0.251,-6.8 -0.444,-10.066c-0.294,-4.969 -0.573,-9.699 -0.375,-14.595c0.991,-0.019 1.987,-0.027 2.979,-0.027c18.531,0 38.261,3.282 57.061,9.49zm-49.694,162.913l-7.299,10.104c-0.077,-4.161 -0.1,-8.345 -0.106,-12.487c2.153,1.218 4.653,2.025 7.405,2.383zm-20.026,-0.165c2.382,-0.253 4.721,-0.929 6.947,-2.001l0.188,11.679c-0.568,-0.758 -1.137,-1.51 -1.7,-2.255c-1.831,-2.422 -3.703,-4.899 -5.435,-7.423zm29.336,27.983c-1.313,1.445 -2.37,3.049 -3.179,4.824l-7.148,-8.196l10.327,3.372zm-44.628,-49.454c9.51,-0.488 15.679,-2.829 21.816,-6.806l0.318,19.904c-2.29,2.106 -5.168,2.875 -10.625,2.913l-11.509,-16.011zm18.327,45.476l-6.499,9.441c-1.112,-2.151 -2.811,-3.976 -4.993,-5.7l11.492,-3.741zm27.578,-1.569l-11.404,-3.724l11.234,-3.698c-0.407,2.37 -0.349,4.86 0.17,7.422zm24.676,8.066l-18.149,-5.935c-1.672,-4.308 -1.717,-8.318 -0.131,-11.708l18.561,-6.104c-1.716,5.643 -3.234,14.487 -0.281,23.747zm7.133,-26l18.407,-6.055c-5.347,13.958 -4.074,29.341 0.045,40.422l-18.543,-6.062c-4.773,-9.682 -3.054,-20.989 0.091,-28.305zm25.695,36.734c-5.93,-11.481 -7.732,-30.231 0.01,-45.188l19.268,-6.338c-7.469,19.27 -7.719,41.776 -0.752,57.587l-18.526,-6.061zm46.693,-60.547c-7.957,24.405 -7.99,52.557 -0.097,75.789l-20.319,-6.648c-9.521,-15.244 -9.438,-41.723 0.198,-62.489l20.218,-6.652zm-28.452,3.376l-19.905,6.552c-12.459,-8.503 -21.586,-20.979 -26.491,-36.211c4.095,-5.188 7.956,-10.544 11.91,-16.527c6.13,17.134 17.702,32.635 34.486,46.186zm6.475,-2.132c-17.671,-12.657 -31.88,-31.979 -36.634,-49.81l13.131,-18.16c13.026,23.375 25.097,43.072 44.39,61.094l-20.887,6.876zm-39.342,-55.829l-1.622,2.298c-21.553,-3.18 -39.38,-10.005 -60.673,-19.92l-0.347,-21.77c24.513,12.358 46.429,19.49 73.792,24.017l-11.14,15.413l-0.01,-0.038zm-82.843,87.821l11.186,4.512l-11.6,3.775c0.916,-2.875 1.097,-5.366 0.414,-8.287zm-25.817,-10.418l18.81,7.585c2.565,5.618 2.288,7.612 -0.45,13.415l-18.865,6.142c2.397,-8.573 2.516,-15.999 0.505,-27.142zm-50.968,-20.565l19.507,7.869c4.413,19.362 3.934,37.145 -1.352,50.351l-20.252,6.591c4.985,-21.514 5.731,-44.648 2.097,-64.811zm25.873,10.438l18.817,7.592c2.869,13.982 2.674,21.519 -0.852,31.829l-18.869,6.143c3.946,-12.725 4.268,-28.569 0.904,-45.564zm20.955,2.336l-19.096,-7.71c12.059,-10.071 18.021,-17.608 22.422,-28.522l11.967,16.638c-3.017,8.705 -6.831,12.653 -15.293,19.594zm-25.113,-10.143l-20.078,-8.102c16.259,-15.644 24.362,-25.306 31.937,-41.039l12.586,17.492c-4.463,12.689 -10.21,20.122 -24.445,31.649zm-28.029,-5.182c4.494,21.276 3.711,46.429 -2.162,69.433l-20.005,6.515c7.283,-21.617 8.413,-58.458 2.494,-83.882l19.673,7.934zm-0.389,74.843c20.089,14.071 32.952,35.807 38.514,52.074l-12.029,17.47c-8.354,-21.637 -29.745,-48.923 -46.693,-62.962l20.208,-6.582zm6.681,-2.177l19.828,-6.463c19.956,12.073 25.382,25.139 27.959,37.542l-11.994,17.42c-4.282,-10.914 -14.813,-32.427 -35.793,-48.499zm77.582,-44.937c1.729,-1.586 3.012,-3.169 4.01,-4.961l6.666,9.273l-10.676,-4.312zm-5.974,-2.411l-18.776,-7.58c6.422,-5.439 10.302,-9.657 13.268,-16.506l11.651,16.196c-1.09,3.247 -2.672,5.274 -6.143,7.89zm-17.347,-50.101c14.681,-2.911 27.22,-6.793 38.114,-11.801c0.004,6.784 0.03,14.095 0.189,21.096c-7.438,5.437 -13.463,8.034 -25.585,8.044c-2.68,-4.349 -5.915,-8.518 -9.052,-12.56c-1.268,-1.633 -2.493,-3.213 -3.666,-4.779zm-1.8,-5.475l-1.761,0.349l-12.603,-17.532c21.25,-4.177 35.432,-7.618 53.675,-17.798l0.357,22.214c-13.712,7.578 -23.603,9.555 -39.668,12.767zm-56.613,24.991l-20.33,-8.21c21.179,-19.708 29.775,-31.737 41.374,-53.712l12.887,17.921c-7.93,17.37 -15.731,26.637 -33.931,44.001zm24.306,159.181c30.929,3.624 49.778,9.503 73.274,22.86l0,22.154c-20.991,-11.089 -55.332,-23.113 -85.791,-26.832l12.517,-18.182zm73.279,-5.286l-0.003,21.589c-22.01,-12.128 -41.087,-18.044 -69.615,-21.619l12.383,-17.991c23.537,3.901 46.848,13.41 57.235,18.021zm0.002,-28.091l-0.003,21.849c-12.223,-5.305 -32.518,-13.113 -53.671,-16.962l12.268,-17.826c15.138,2.588 29.052,6.937 41.406,12.939zm-41.312,-23.09c-3.002,-10.808 -9.152,-22.615 -25.294,-33.521l18.568,-6.048c11.637,9.727 14.657,13.716 17.742,23.572l-11.016,15.997zm113.909,-85.058l-19.33,6.36c-10.081,-5.674 -12.655,-9.284 -16.313,-22.788l11.618,-16.072c4.936,13.285 12.543,23.574 24.025,32.5zm-26.426,8.695l-18.069,5.945c-3.566,-2.454 -5.183,-5.309 -6.636,-9.638l11.271,-15.592c3.064,9.844 6.312,14.572 13.434,19.285zm-17.95,28.522l19.057,6.232c-5.051,4.702 -8.891,10.425 -11.055,16.465l-13.065,-14.983c0.81,-3.237 2.415,-5.68 5.063,-7.714zm25.363,8.301l19.796,6.475c-9.252,9.434 -15.648,22.012 -18.763,29.012l-13.981,-16.029c1.726,-7.284 6.37,-14.264 12.948,-19.458zm25.919,8.48l20.062,6.562c-11.854,11.07 -18.839,24.48 -26.568,41.515l-14.231,-16.315c4.284,-10.337 11.741,-23.528 20.737,-31.762zm26.322,8.615l20.818,6.814c-15.162,14.664 -27.269,33.085 -35.292,53.698l-14.229,-16.314c8.416,-18.709 15.64,-33.004 28.703,-44.198zm28.54,-76.948l20.256,-6.665c-3.927,12.729 -6.064,28.629 -6.064,45.425c0,17.045 2.217,33.964 6.283,48.233l-20.494,-6.706c-9.495,-24.115 -9.487,-54.649 0.019,-80.287zm19.229,-12.321l-20.926,6.882c-20.646,-18.577 -33.1,-39.256 -46.918,-64.163l12.466,-17.241c6.453,13.229 13.974,25.589 22.914,37.665c9.074,12.264 19.719,24.352 32.464,36.857zm-150.359,-86.059l0,-21.412c19.722,8.441 40.694,15.844 65.647,23.182l2.906,0.836c7.456,2.149 14.564,4.198 21.915,5.443l-12.591,17.433c-28.717,-4.37 -54.904,-12.939 -77.877,-25.482zm-62.241,47.782l-13.019,-18.107c29.314,-7.438 46.099,-12.378 69.898,-23.356l0.359,22.251c-19.507,11.358 -33.421,14.572 -57.238,19.212zm-16.607,-23.105l-13.161,-18.302c6.198,-1.784 12.287,-3.472 18.206,-5.111l4.027,-1.117c23.557,-6.549 43.424,-12.345 63.971,-21.341l0.342,21.249c-25.132,11.779 -42.132,16.725 -73.385,24.622zm-4.667,3.267c-12.302,23.615 -20.707,35.573 -43.503,56.539l-20.662,-8.344c24.868,-25.1 36.93,-42.132 51.088,-66.377l13.077,18.182zm-66.111,53.647c0.422,0.172 0.841,0.342 1.258,0.51c2.332,0.941 4.744,1.915 7.085,3.084c2.298,1.15 4.725,1.897 7.072,2.62c1.746,0.538 3.416,1.052 4.977,1.706c0.22,2.144 0.828,4.014 1.378,5.704c0.261,0.804 0.509,1.565 0.695,2.298c1.373,8.255 2.077,16.696 2.759,24.861l0.006,0.063c0.818,23.143 -1.649,40.992 -7.757,56.015c-4.249,1.078 -8.214,2.564 -12.06,4.007c-3.018,1.132 -5.916,2.219 -8.919,3.118c6.665,-36.561 7.843,-71.502 3.506,-103.986zm-1.637,109.18l21.183,-6.9c17.539,13.271 42.14,44.406 49.21,66.656l-12.487,18.129c-5.176,-11.432 -12.783,-24.351 -21.736,-36.867c-10.638,-14.871 -23.082,-28.976 -36.17,-41.018zm148.028,23.795c-11.496,-5.309 -24.195,-9.266 -37.854,-11.798l12.039,-17.49c10.273,0.726 18.34,3.218 25.814,7.978l0,21.31l0.001,0zm-41.696,-58.427l19.221,-6.259c6.004,3.816 7.416,6.286 7.555,9.565l-11.372,16.516c-2.869,-7.482 -6.613,-12.221 -15.404,-19.822zm102.539,-102.605l-12.793,17.709c-16.751,-1.966 -27.741,-5.479 -43.673,-13.96l-0.358,-22.523c19.716,9.067 36.687,15.46 56.824,18.774zm-16.626,23.014l-11.676,16.158c-10.952,-1.294 -19.631,-4.242 -27.899,-9.464l0,-19.532c12.285,5.697 25.465,10.906 39.575,12.838zm-33.965,56.685l7.269,-10.058c1.063,2.31 2.397,4.391 4.259,6.266l-11.528,3.792zm85.368,107.492c8.077,-21.996 20.905,-41.497 37.207,-56.56l20.864,6.824c-20.675,20.132 -32.922,38.766 -43.604,66.333l-14.467,-16.597zm-163.7,-246.092l-3.438,0.953c-6.742,1.869 -13.696,3.797 -20.8,5.859l-14.004,-19.477c14.888,-10.387 31.104,-18.57 48.238,-24.339c17.709,-5.962 36.206,-9.271 55.014,-9.847l0.399,24.81c-20.985,9.399 -41.239,15.32 -65.409,22.041zm-21.359,283.079c4.69,0.337 8.933,1.062 12.929,2.205l0.337,0.097l3.639,0c23.106,4.173 44.994,11.897 72.877,25.736l0,24.735c-37.106,-0.493 -73.776,-11.939 -103.805,-32.403l14.023,-20.37zm78.852,-114.558c3.526,0.059 7.618,1.894 10.93,3.525l0,20.314c-6.648,-3.345 -14.183,-6.386 -22.364,-7.229l11.434,-16.61zm3.597,-5.02c2.248,-3.565 4.642,-7.116 6.994,-10.507l0,12.778c-2.464,-1.089 -4.786,-1.843 -6.994,-2.271zm11.667,-68.231c6.815,4.02 14.752,6.676 24.071,8.06l-12.127,16.786c-0.274,0.023 -0.553,0.034 -0.833,0.034c-4.094,0 -7.971,-2.347 -10.37,-4.176c0.146,-3.282 -0.144,-6.611 -0.424,-9.844c-0.328,-3.775 -0.641,-7.394 -0.317,-10.86zm0.996,70.201l0,-13.886l9.092,10.425c-3.207,0.772 -6.093,1.872 -9.092,3.461zm13.379,1.463l13.281,15.234c-8.414,1.893 -17.203,5.243 -26.657,10.159l-0.003,-20.314c4.528,-2.795 8.37,-4.255 13.379,-5.079zm-8.26,29.481c8.086,-3.938 16.438,-8.007 25.706,-9.259c3.479,2.961 6.251,6.483 9.173,10.196c1.416,1.799 2.861,3.636 4.413,5.429c-16.377,4.094 -31.278,9.739 -44.404,16.825l-0.003,-20.729c1.723,-0.81 3.442,-1.647 5.115,-2.462zm43.83,11.32l13.98,16.037c-19.078,3.933 -39.279,11.628 -62.916,23.957l-0.005,-21.621c14.151,-8.043 30.602,-14.217 48.941,-18.373zm18.319,21.012l14.373,16.485c-29.697,6.345 -56.479,16.394 -81.624,30.626l-0.003,-21.676c25.628,-13.593 47.059,-21.702 67.254,-25.435zm18.675,21.43l14.607,16.758c-18.203,4.698 -35.378,10.198 -52.385,16.773c-14.614,5.648 -29.591,12.234 -48.145,21.183l-0.003,-22.445c26.321,-15.3 54.469,-25.868 85.926,-32.269zm-85.922,61.068c19.575,-9.494 35.086,-16.351 50.127,-22.163c17.636,-6.824 35.496,-12.488 54.618,-17.314l16.124,18.497c-16.548,14.068 -35.162,25.122 -55.364,32.871c-20.933,8.038 -42.956,12.274 -65.505,12.603l0,-24.494zm155.692,-216.386l23.988,-7.894c5.853,18.539 8.818,37.851 8.818,57.438c0,19.218 -2.859,38.187 -8.503,56.425l-24.228,-7.921c-4.634,-14.478 -7.182,-32.322 -7.188,-50.422c0.001,-18.061 2.522,-34.915 7.113,-47.626zm-1.665,-5.45c-13.467,-13.023 -24.603,-25.553 -34.013,-38.271c-9.348,-12.638 -17.103,-25.576 -23.679,-39.512l14.955,-20.7c15.218,11.345 28.641,24.833 39.923,40.124c11.415,15.469 20.383,32.447 26.677,50.5l-23.863,7.859zm-270.671,-98.739l13.936,19.369c-14.799,25.543 -26.867,42.79 -53.189,69.146l-23.156,-9.348c6.657,-15.68 15.405,-30.428 26.024,-43.874c10.523,-13.316 22.755,-25.181 36.385,-35.293zm-64.527,84.349c4.34,1.59 8.528,3.396 12.926,5.291c3.248,1.4 6.594,2.843 10.019,4.193c4.895,33.646 3.736,69.976 -3.445,108.037c-8.38,3.161 -16.566,5.673 -24.27,7.901c-5.409,-17.112 -8.261,-36.43 -8.261,-56.037c0,-23.924 4.382,-47.257 13.031,-69.385zm21.19,123.162c13.706,12.265 26.773,26.904 37.853,42.414c9.558,13.373 17.509,27.153 22.498,38.969l-14.202,20.623c-16.163,-11.544 -30.383,-25.453 -42.296,-41.373c-12.062,-16.12 -21.435,-33.874 -27.884,-52.807l24.031,-7.826zm285.136,88.321l-16.505,-18.932c10.979,-29.217 23.477,-48.223 45.503,-69.199l24.074,7.88c-5.276,15.412 -12.525,30.113 -21.565,43.729c-8.929,13.441 -19.52,25.716 -31.507,36.522z"/>
 </g>
</svg>