<?xml version="1.0" encoding="UTF-8"?>
<svg xmlns="http://www.w3.org/2000/svg" xmlns:xlink="http://www.w3.org/1999/xlink" viewBox="0 0 240 240" width="240px" height="240px">
<g id="surface71238779">
<path style=" stroke:none;fill-rule:nonzero;fill:rgb(3.921569%,14.901961%,39.215687%);fill-opacity:1;" d="M 215 35 L 25 35 C 19.5 35 15 39.5 15 45 L 15 180 C 15 185.5 19.5 190 25 190 L 50 190 L 50 230 L 95 190 L 215 190 C 220.5 190 225 185.5 225 180 L 225 45 C 225 39.5 220.5 35 215 35 Z M 215 35 "/>
<path style=" stroke:none;fill-rule:nonzero;fill:rgb(54.11765%,86.274511%,97.254902%);fill-opacity:1;" d="M 58.648438 100 L 46.351562 100 L 52.5 85 Z M 75 140 L 30 140 L 42.25 110 L 62.75 110 Z M 203.101562 100 L 171.949219 100 C 174.800781 91.101562 180.699219 85 187.5 85 C 194.300781 85 200.199219 91.101562 203.101562 100 Z M 205 112.5 C 205 127.699219 197.148438 140 187.5 140 C 177.851562 140 170 127.699219 170 112.5 C 170 111.648438 170 110.800781 170.101562 110 L 204.898438 110 C 205 110.800781 205 111.648438 205 112.5 Z M 115 112.5 C 115 127.699219 107.171875 140 97.5 140 C 87.828125 140 80 127.699219 80 112.5 C 80 111.648438 80.046875 110.800781 80.089844 110 L 114.914062 110 C 114.953125 110.800781 115 111.648438 115 112.5 Z M 80 85 L 115 85 L 115 100 L 80 100 Z M 125 85 L 160 85 L 160 100 L 125 100 Z M 135 110 L 150 110 L 150 140 L 135 140 Z M 135 110 "/>
<path style=" stroke:none;fill-rule:nonzero;fill:rgb(25.882354%,64.705884%,96.078432%);fill-opacity:1;" d="M 205 220 L 145 220 L 145 140 L 182.5 140 L 205 162.5 Z M 205 220 "/>
<path style=" stroke:none;fill-rule:nonzero;fill:rgb(88.235295%,96.078432%,99.607843%);fill-opacity:1;" d="M 200 165 L 180 165 L 180 145 Z M 200 165 "/>
<path style=" stroke:none;fill-rule:nonzero;fill:rgb(56.470591%,79.215688%,97.647059%);fill-opacity:1;" d="M 240 240 L 180 240 L 180 160 L 217.5 160 L 240 182.5 Z M 240 240 "/>
<path style=" stroke:none;fill-rule:nonzero;fill:rgb(88.235295%,96.078432%,99.607843%);fill-opacity:1;" d="M 235 185 L 215 185 L 215 165 Z M 235 185 "/>
</g>
</svg>
