<?xml version="1.0" encoding="UTF-8"?>
<svg xmlns="http://www.w3.org/2000/svg" xmlns:xlink="http://www.w3.org/1999/xlink" viewBox="0 0 200 200" width="200px" height="200px">
<g id="surface71204582">
<path style=" stroke:none;fill-rule:nonzero;fill:rgb(98.431373%,78.039217%,23.529412%);fill-opacity:1;" d="M 125.996094 196 C 125.039062 196 124.210938 195.316406 124.035156 194.367188 L 112.035156 130.367188 C 111.875 129.507812 112.292969 128.640625 113.066406 128.230469 C 113.363281 128.074219 113.683594 128 114 128 C 114.519531 128 115.03125 128.203125 115.414062 128.585938 L 117.171875 130.34375 L 112.019531 94.28125 C 111.898438 93.429688 112.335938 92.59375 113.105469 92.210938 C 113.390625 92.070312 113.695312 92 114 92 C 114.519531 92 115.03125 92.203125 115.414062 92.585938 L 119.644531 96.816406 L 117.328125 62.558594 L 117.253906 62.558594 C 112.378906 62.558594 108.703125 62.8125 100 66.21875 L 100 121.527344 L 103.789062 129.105469 C 104.101562 129.726562 104.066406 130.460938 103.703125 131.050781 C 103.335938 131.640625 102.695312 132 102 132 L 74 132 C 73.300781 132 72.65625 131.636719 72.292969 131.042969 C 71.929688 130.449219 71.902344 129.710938 72.21875 129.089844 L 76 121.699219 L 76 78.851562 C 71.753906 81.578125 66.4375 84.285156 62 85.554688 L 62 113.527344 L 65.789062 121.105469 C 66.101562 121.726562 66.066406 122.460938 65.703125 123.050781 C 65.335938 123.640625 64.695312 124 64 124 L 36 124 C 35.304688 124 34.664062 123.640625 34.296875 123.050781 C 33.933594 122.460938 33.898438 121.726562 34.210938 121.105469 L 38.003906 113.519531 L 38.285156 84.957031 C 33.996094 83.027344 27.722656 79.359375 24.464844 77.296875 C 22.835938 76.265625 17.878906 73.132812 16.394531 65.230469 C 16.371094 65.109375 16.359375 64.984375 16.359375 64.859375 L 16.359375 64.460938 C 16.359375 63.617188 16.886719 62.867188 17.679688 62.578125 C 18.890625 62.140625 19.996094 61.699219 21.058594 61.277344 C 23.765625 60.203125 26.320312 59.183594 29.585938 58.59375 C 29.707031 58.570312 29.824219 58.5625 29.945312 58.5625 C 30.40625 58.5625 30.863281 58.722656 31.226562 59.027344 C 31.683594 59.40625 31.945312 59.96875 31.945312 60.5625 C 32.0625 61.136719 32.085938 62.167969 30.898438 63.230469 C 30.265625 63.796875 29.410156 64.492188 28.515625 65.214844 C 27.789062 65.800781 27.039062 66.410156 26.363281 66.984375 C 26.15625 67.160156 26.140625 67.378906 26.144531 67.492188 C 26.152344 67.625 26.203125 67.8125 26.40625 67.949219 L 26.902344 68.285156 C 29.070312 69.636719 32.480469 71.078125 35.488281 72.355469 C 36.371094 72.726562 37.21875 73.089844 38.003906 73.433594 L 38.003906 28.472656 L 34.214844 20.894531 C 33.902344 20.273438 33.9375 19.539062 34.300781 18.949219 C 34.664062 18.359375 35.304688 18 36 18 L 64 18 C 64.695312 18 65.335938 18.359375 65.703125 18.949219 C 66.066406 19.539062 66.101562 20.273438 65.789062 20.894531 L 62 28.472656 L 62 72.757812 C 65.757812 70.625 72.59375 66.421875 76 63.878906 L 76 24.472656 L 72.210938 16.894531 C 71.898438 16.273438 71.933594 15.539062 72.296875 14.949219 C 72.664062 14.359375 73.304688 14 74 14 L 101.820312 14 C 102.507812 14 103.144531 14.351562 103.511719 14.933594 C 103.878906 15.515625 103.921875 16.242188 103.625 16.863281 L 100 24.453125 L 100 54.378906 C 103.304688 53.511719 109.3125 52.214844 115.707031 52.214844 C 115.917969 52.214844 116.132812 52.214844 116.347656 52.21875 L 116.003906 42.066406 C 115.980469 41.527344 116.1875 41 116.5625 40.609375 C 116.941406 40.21875 117.457031 40 118 40 L 140 40 C 141.105469 40 142 40.894531 142 42 L 142 47.292969 C 145.25 46.304688 149.296875 45.089844 152.011719 44.285156 C 152.59375 44.109375 153.195312 44.019531 153.800781 44.019531 C 155.878906 44.019531 157.804688 45.066406 158.953125 46.824219 L 159.097656 47.042969 C 161.628906 50.894531 169.339844 62.621094 173.375 67.601562 C 173.683594 67.980469 173.839844 68.457031 173.820312 68.945312 C 173.734375 71.039062 173.652344 73.503906 173.5625 76.132812 C 173.273438 85 172.90625 96.03125 172.039062 101.570312 C 171.972656 101.96875 171.230469 105.226562 171.230469 105.226562 C 171.144531 105.597656 170.960938 105.929688 170.695312 106.195312 C 167.652344 109.234375 165.375 110.152344 161.257812 111.394531 C 158.945312 112.164062 154.109375 113.355469 151.164062 113.871094 C 150.933594 113.910156 150.695312 113.933594 150.457031 113.933594 C 149.324219 113.933594 148.164062 113.449219 147.429688 112.675781 C 146.386719 111.453125 145.132812 110.269531 143.804688 109.019531 C 143.328125 108.570312 142.851562 108.121094 142.371094 107.660156 L 143.996094 131.867188 C 144.050781 132.699219 143.585938 133.476562 142.824219 133.820312 C 142.558594 133.941406 142.28125 134 142 134 C 141.480469 134 140.96875 133.796875 140.585938 133.414062 L 136.289062 129.117188 L 137.996094 159.890625 C 138.042969 160.71875 137.574219 161.488281 136.816406 161.828125 C 136.554688 161.945312 136.277344 162 136 162 C 135.480469 162 134.96875 161.796875 134.585938 161.414062 L 131.570312 158.398438 L 127.988281 194.199219 C 127.890625 195.1875 127.078125 195.953125 126.085938 195.996094 C 126.054688 196 126.027344 196 125.996094 196 Z M 142 96.09375 C 143.464844 97.523438 146.902344 99.824219 149.84375 101.476562 C 150.269531 100.828125 150.742188 100.003906 150.910156 99.617188 C 151.671875 95.800781 153.59375 85.503906 153.59375 82.476562 C 153.59375 71.546875 152.515625 64.1875 150.898438 56.496094 C 150.878906 56.402344 150.863281 56.308594 150.859375 56.210938 C 149.199219 56.449219 144.96875 57.074219 141.996094 57.632812 L 141.996094 96.09375 Z M 142 96.09375 "/>
<path style=" stroke:none;fill-rule:nonzero;fill:rgb(100%,63.921571%,0%);fill-opacity:1;" d="M 35 19 L 49 28 L 65 19 Z M 35 19 "/>
<path style=" stroke:none;fill-rule:nonzero;fill:rgb(100%,63.921571%,0%);fill-opacity:1;" d="M 35 123 L 49 114 L 65 123 Z M 35 123 "/>
<path style=" stroke:none;fill-rule:nonzero;fill:rgb(100%,63.921571%,0%);fill-opacity:1;" d="M 73 131.300781 L 87 122.300781 L 103 131.300781 Z M 73 131.300781 "/>
<path style=" stroke:none;fill-rule:nonzero;fill:rgb(100%,63.921571%,0%);fill-opacity:1;" d="M 73 14 L 87 23 L 103 14 Z M 73 14 "/>
<path style=" stroke:none;fill-rule:nonzero;fill:rgb(100%,63.921571%,0%);fill-opacity:1;" d="M 117 41 L 129 50 L 141 41 Z M 117 41 "/>
<path style=" stroke:none;fill-rule:nonzero;fill:rgb(54.901963%,31.37255%,4.313726%);fill-opacity:1;" d="M 37.957031 84.871094 L 37.957031 113 L 35 123 L 49 114 L 49 28 L 35 19 L 37.957031 28.847656 L 37.957031 73 L 40 76 L 40 84 Z M 37.957031 84.871094 "/>
<path style=" stroke:none;fill-rule:nonzero;fill:rgb(54.901963%,31.37255%,4.313726%);fill-opacity:1;" d="M 72.296875 14.949219 L 87 24 L 87 122 L 73 131 L 78 122 L 78 24 Z M 72.296875 14.949219 "/>
<path style=" stroke:none;fill-rule:nonzero;fill:rgb(54.901963%,31.37255%,4.313726%);fill-opacity:1;" d="M 150.011719 103 C 150.011719 103 160.3125 99.492188 161 97 C 162.0625 93.144531 163 69 163 69 L 151.476562 55 C 151.476562 55 154.1875 73.21875 153.59375 80.109375 C 153 86.996094 150.011719 103 150.011719 103 Z M 150.011719 103 "/>
<path style=" stroke:none;fill-rule:nonzero;fill:rgb(54.901963%,31.37255%,4.313726%);fill-opacity:1;" d="M 126 195 L 123 143 L 129 149 L 125 107 L 131 113 L 129 50 L 117.878906 41.285156 L 122 102 L 112.664062 92.175781 L 119.363281 134.726562 L 113.203125 128.808594 Z M 126 195 "/>
<path style=" stroke:none;fill-rule:nonzero;fill:rgb(12.156863%,12.941177%,16.862746%);fill-opacity:1;" d="M 101.820312 16 L 98 24 L 98 57.039062 C 98 57.039062 110.710938 53.84375 117.601562 53.84375 C 118.011719 53.84375 118.402344 53.855469 118.769531 53.878906 L 118 42 L 140 42 L 140 50 C 143.359375 48.960938 149.078125 47.238281 152.578125 46.199219 C 152.984375 46.078125 153.394531 46.019531 153.800781 46.019531 C 155.1875 46.019531 156.488281 46.710938 157.28125 47.921875 C 159.699219 51.601562 167.640625 63.699219 171.820312 68.859375 C 171.441406 78.058594 171.160156 94.238281 170.058594 101.261719 C 170 101.640625 169.28125 104.78125 169.28125 104.78125 C 166.539062 107.519531 164.601562 108.300781 160.679688 109.480469 C 158.339844 110.261719 153.558594 111.421875 150.820312 111.898438 C 150.699219 111.921875 150.574219 111.933594 150.457031 111.933594 C 149.804688 111.933594 149.203125 111.636719 148.878906 111.300781 C 146.480469 108.480469 142.738281 105.675781 140 102.15625 L 142 132 L 134 124 L 136 160 L 130 154 L 126 194 L 114 130 L 120 136 L 114 94 L 122 102 L 119.199219 60.558594 C 118.527344 60.558594 117.882812 60.554688 117.257812 60.554688 C 112.097656 60.554688 108.121094 60.777344 98 64.859375 L 98 122 L 102 130 L 74 130 L 78 122.179688 L 78 75.039062 C 73.300781 78.558594 65.480469 82.820312 60 84 L 60 114 L 64 122 L 36 122 L 40 114 L 40.300781 83.640625 C 36.398438 82.078125 29.4375 78.070312 25.535156 75.605469 C 23.328125 74.207031 19.59375 71.421875 18.359375 64.859375 L 18.359375 64.460938 C 22.660156 62.898438 25.644531 61.339844 29.941406 60.558594 C 29.941406 60.941406 30.207031 61.160156 29.5625 61.738281 C 28.429688 62.757812 26.550781 64.1875 25.058594 65.464844 C 23.753906 66.585938 23.855469 68.632812 25.277344 69.601562 C 25.445312 69.714844 25.613281 69.824219 25.78125 69.941406 C 28.921875 71.898438 34.039062 73.859375 37.558594 75.421875 C 38.359375 75.820312 40 76 40 76 L 40 28 L 36 20 L 64 20 L 60 28 L 60 76 C 61.558594 75.601562 74.078125 68 78 64.859375 L 78 24 L 74 16 L 101.820312 16 M 150.214844 103.976562 C 150.855469 103.976562 152.855469 100.445312 152.855469 100.089844 C 152.855469 100.089844 155.59375 86.390625 155.59375 82.480469 C 155.59375 71.175781 154.421875 63.523438 152.855469 56.089844 C 152.855469 55.304688 152.855469 54.914062 152.460938 54.523438 C 152.070312 54.128906 151.679688 54.128906 151.289062 54.128906 C 151.289062 54.128906 143.519531 55.214844 139.996094 56 L 139.996094 96.871094 C 141.5625 98.824219 146.847656 102.1875 150.074219 103.878906 C 150.109375 103.949219 150.15625 103.976562 150.214844 103.976562 M 101.820312 12 L 74 12 C 72.613281 12 71.324219 12.71875 70.597656 13.898438 C 69.871094 15.078125 69.800781 16.550781 70.421875 17.789062 L 74 24.945312 L 74 62.859375 C 71.378906 64.726562 67.304688 67.292969 64 69.273438 L 64 28.945312 L 67.578125 21.789062 C 68.199219 20.546875 68.132812 19.074219 67.402344 17.894531 C 66.675781 16.71875 65.386719 16 64 16 L 36 16 C 34.613281 16 33.324219 16.71875 32.597656 17.898438 C 31.871094 19.078125 31.800781 20.550781 32.421875 21.789062 L 36 28.945312 L 36 70.398438 C 33.664062 69.410156 31.117188 68.320312 29.152344 67.269531 C 29.363281 67.097656 29.570312 66.929688 29.78125 66.761719 C 30.6875 66.027344 31.546875 65.335938 32.234375 64.71875 C 33.199219 63.855469 34.265625 62.375 33.929688 60.222656 C 33.839844 59.160156 33.332031 58.175781 32.507812 57.488281 C 31.785156 56.882812 30.875 56.558594 29.945312 56.558594 C 29.707031 56.558594 29.46875 56.578125 29.230469 56.621094 C 25.769531 57.25 23.121094 58.300781 20.316406 59.417969 C 19.277344 59.832031 18.1875 60.265625 16.996094 60.699219 C 15.414062 61.273438 14.363281 62.777344 14.363281 64.457031 L 14.363281 64.859375 C 14.363281 65.105469 14.386719 65.355469 14.429688 65.597656 C 16.074219 74.355469 21.585938 77.839844 23.398438 78.984375 C 26.535156 80.96875 32.003906 84.179688 36.277344 86.222656 L 36.011719 113.035156 L 32.425781 120.210938 C 31.804688 121.449219 31.871094 122.921875 32.601562 124.101562 C 33.324219 125.28125 34.613281 126 36 126 L 64 126 C 65.386719 126 66.675781 125.28125 67.402344 124.101562 C 68.128906 122.921875 68.199219 121.449219 67.578125 120.210938 L 64 113.054688 L 64 87.023438 C 67.230469 85.929688 70.769531 84.238281 74 82.394531 L 74 121.214844 L 70.4375 128.179688 C 69.804688 129.417969 69.859375 130.898438 70.585938 132.085938 C 71.3125 133.277344 72.609375 134 74 134 L 102 134 C 103.386719 134 104.675781 133.28125 105.402344 132.101562 C 106.128906 130.921875 106.199219 129.449219 105.578125 128.210938 L 102 121.054688 L 102 67.589844 C 108.550781 65.117188 111.871094 64.652344 115.460938 64.570312 L 117.289062 91.632812 L 116.828125 91.171875 C 116.058594 90.402344 115.035156 90 113.996094 90 C 113.390625 90 112.777344 90.136719 112.210938 90.421875 C 110.671875 91.191406 109.796875 92.859375 110.039062 94.566406 L 114.535156 126.035156 C 114.359375 126.011719 114.179688 126 113.996094 126 C 113.363281 126 112.722656 126.152344 112.132812 126.460938 C 110.582031 127.28125 109.746094 129.015625 110.066406 130.738281 L 122.066406 194.738281 C 122.425781 196.636719 124.082031 198 125.996094 198 C 126.054688 198 126.113281 197.996094 126.171875 197.996094 C 128.160156 197.910156 129.78125 196.378906 129.980469 194.398438 L 133.140625 162.796875 L 133.171875 162.828125 C 133.9375 163.59375 134.960938 164 136.003906 164 C 136.554688 164 137.109375 163.886719 137.632812 163.652344 C 139.148438 162.976562 140.089844 161.433594 139.996094 159.777344 L 138.574219 134.230469 L 139.171875 134.828125 C 139.9375 135.59375 140.960938 136 142.003906 136 C 142.558594 136 143.125 135.882812 143.652344 135.640625 C 145.171875 134.953125 146.105469 133.394531 145.992188 131.730469 L 144.714844 112.679688 C 145.125 113.09375 145.503906 113.496094 145.835938 113.890625 C 145.882812 113.945312 145.933594 114 145.980469 114.050781 C 147.097656 115.226562 148.773438 115.929688 150.457031 115.929688 C 150.816406 115.929688 151.179688 115.894531 151.53125 115.832031 C 154.511719 115.308594 159.429688 114.101562 161.890625 113.289062 C 165.933594 112.070312 168.644531 111.066406 172.113281 107.601562 C 172.644531 107.070312 173.015625 106.398438 173.183594 105.667969 C 173.933594 102.394531 173.992188 102.003906 174.015625 101.878906 C 174.902344 96.210938 175.269531 85.097656 175.566406 76.164062 C 175.652344 73.550781 175.734375 71.105469 175.820312 69.019531 C 175.859375 68.046875 175.542969 67.09375 174.933594 66.339844 C 170.960938 61.433594 163.296875 49.777344 160.777344 45.945312 L 160.625 45.71875 C 159.113281 43.402344 156.558594 42.015625 153.804688 42.015625 C 153.003906 42.015625 152.207031 42.132812 151.4375 42.367188 C 149.339844 42.988281 146.585938 43.8125 144.007812 44.59375 L 144.007812 42 C 144.007812 39.789062 142.214844 38 140.007812 38 L 118 38 C 116.894531 38 115.839844 38.457031 115.082031 39.265625 C 114.324219 40.070312 113.9375 41.152344 114.007812 42.257812 L 114.507812 49.992188 C 110.402344 50.34375 105.550781 51.261719 102 52.019531 L 102 24.90625 L 105.429688 17.722656 C 106.023438 16.484375 105.9375 15.027344 105.203125 13.867188 C 104.46875 12.703125 103.195312 12 101.820312 12 Z M 144 59.304688 C 145.78125 58.996094 147.742188 58.695312 149.261719 58.46875 C 150.675781 65.488281 151.59375 72.457031 151.59375 82.476562 C 151.59375 84.941406 150.085938 93.46875 149.050781 98.695312 C 147.007812 97.449219 145.113281 96.125 144 95.203125 Z M 144 59.304688 "/>
<path style=" stroke:none;fill-rule:nonzero;fill:rgb(12.156863%,12.941177%,16.862746%);fill-opacity:1;" d="M 129.730469 74.015625 C 129.191406 74.015625 128.746094 73.589844 128.730469 73.046875 L 128 50.03125 C 127.980469 49.480469 128.414062 49.019531 128.96875 49.003906 C 129.507812 48.976562 129.980469 49.417969 130 49.96875 L 130.730469 72.984375 C 130.746094 73.539062 130.3125 74 129.761719 74.015625 C 129.753906 74.015625 129.738281 74.015625 129.730469 74.015625 Z M 129.730469 74.015625 "/>
<path style=" stroke:none;fill-rule:nonzero;fill:rgb(12.156863%,12.941177%,16.862746%);fill-opacity:1;" d="M 130.046875 84.054688 C 129.507812 84.054688 129.066406 83.628906 129.046875 83.089844 L 128.921875 79.03125 C 128.902344 78.480469 129.335938 78.019531 129.886719 78 C 130.441406 77.953125 130.902344 78.414062 130.921875 78.964844 L 131.046875 83.023438 C 131.066406 83.574219 130.632812 84.035156 130.078125 84.054688 C 130.070312 84.054688 130.058594 84.054688 130.046875 84.054688 Z M 130.046875 84.054688 "/>
<path style=" stroke:none;fill-rule:nonzero;fill:rgb(12.156863%,12.941177%,16.862746%);fill-opacity:1;" d="M 130.421875 95.792969 C 129.882812 95.792969 129.441406 95.367188 129.421875 94.824219 L 129.226562 88.695312 C 129.207031 88.144531 129.640625 87.683594 130.195312 87.664062 C 130.769531 87.613281 131.207031 88.078125 131.226562 88.628906 L 131.421875 94.757812 C 131.441406 95.308594 131.007812 95.773438 130.453125 95.789062 C 130.445312 95.792969 130.433594 95.792969 130.421875 95.792969 Z M 130.421875 95.792969 "/>
<path style=" stroke:none;fill-rule:nonzero;fill:rgb(12.156863%,12.941177%,16.862746%);fill-opacity:1;" d="M 126 196 C 125.472656 196 125.035156 195.589844 125.003906 195.058594 L 122.003906 143.058594 C 121.976562 142.644531 122.210938 142.257812 122.59375 142.089844 C 122.96875 141.917969 123.410156 142 123.707031 142.292969 L 127.742188 146.328125 L 124.007812 107.097656 C 123.964844 106.675781 124.195312 106.277344 124.574219 106.097656 C 124.957031 105.914062 125.410156 105.996094 125.707031 106.292969 L 129.921875 110.507812 L 129.621094 101.027344 C 129.601562 100.476562 130.035156 100.015625 130.589844 99.996094 C 131.152344 99.960938 131.601562 100.414062 131.621094 100.964844 L 132 112.96875 C 132.011719 113.378906 131.773438 113.753906 131.394531 113.917969 C 131.023438 114.078125 130.585938 114 130.292969 113.707031 L 126.257812 109.675781 L 129.992188 148.90625 C 130.035156 149.324219 129.804688 149.726562 129.425781 149.90625 C 129.042969 150.085938 128.589844 150.007812 128.292969 149.707031 L 124.148438 145.5625 L 126.996094 194.941406 C 127.03125 195.492188 126.609375 195.964844 126.054688 195.996094 C 126.039062 196 126.019531 196 126 196 Z M 126 196 "/>
<path style=" stroke:none;fill-rule:nonzero;fill:rgb(12.156863%,12.941177%,16.862746%);fill-opacity:1;" d="M 87 25 C 86.8125 25 86.625 24.949219 86.457031 24.839844 L 72.457031 15.839844 L 73.539062 14.15625 L 87.035156 22.832031 L 102.507812 14.128906 L 103.488281 15.871094 L 87.488281 24.871094 C 87.339844 24.957031 87.167969 25 87 25 Z M 87 25 "/>
<path style=" stroke:none;fill-rule:nonzero;fill:rgb(12.156863%,12.941177%,16.862746%);fill-opacity:1;" d="M 129 51 C 128.789062 51 128.578125 50.933594 128.398438 50.800781 L 116.398438 41.800781 L 117.601562 40.199219 L 129 48.75 L 140.398438 40.199219 L 141.601562 41.800781 L 129.601562 50.800781 C 129.421875 50.933594 129.210938 51 129 51 Z M 129 51 "/>
<path style=" stroke:none;fill-rule:nonzero;fill:rgb(12.156863%,12.941177%,16.862746%);fill-opacity:1;" d="M 49 29 C 48.8125 29 48.625 28.949219 48.457031 28.839844 L 34.457031 19.839844 L 35.539062 18.15625 L 49.035156 26.832031 L 64.507812 18.128906 L 65.488281 19.871094 L 49.488281 28.871094 C 49.339844 28.957031 49.167969 29 49 29 Z M 49 29 "/>
<path style=" stroke:none;fill-rule:nonzero;fill:rgb(12.156863%,12.941177%,16.862746%);fill-opacity:1;" d="M 64.511719 123.871094 L 49.035156 115.167969 L 35.542969 123.84375 L 34.460938 122.160156 L 48.460938 113.160156 C 48.769531 112.957031 49.167969 112.945312 49.492188 113.128906 L 65.492188 122.128906 Z M 64.511719 123.871094 "/>
<path style=" stroke:none;fill-rule:nonzero;fill:rgb(12.156863%,12.941177%,16.862746%);fill-opacity:1;" d="M 102.511719 131.871094 L 87.035156 123.167969 L 73.542969 131.84375 L 72.460938 130.160156 L 86.460938 121.160156 C 86.769531 120.957031 87.167969 120.945312 87.492188 121.128906 L 103.492188 130.128906 Z M 102.511719 131.871094 "/>
<path style=" stroke:none;fill-rule:nonzero;fill:rgb(12.156863%,12.941177%,16.862746%);fill-opacity:1;" d="M 49 115 C 48.449219 115 48 114.550781 48 114 L 48 77 C 48 76.449219 48.449219 76 49 76 C 49.550781 76 50 76.449219 50 77 L 50 114 C 50 114.550781 49.550781 115 49 115 Z M 49 115 "/>
<path style=" stroke:none;fill-rule:nonzero;fill:rgb(12.156863%,12.941177%,16.862746%);fill-opacity:1;" d="M 49 63.957031 C 48.449219 63.957031 48 63.507812 48 62.957031 L 48 53.042969 C 48 52.492188 48.449219 52.042969 49 52.042969 C 49.550781 52.042969 50 52.492188 50 53.042969 L 50 62.957031 C 50 63.507812 49.550781 63.957031 49 63.957031 Z M 49 63.957031 "/>
<path style=" stroke:none;fill-rule:nonzero;fill:rgb(12.156863%,12.941177%,16.862746%);fill-opacity:1;" d="M 49 47.914062 C 48.449219 47.914062 48 47.464844 48 46.914062 L 48 28 C 48 27.449219 48.449219 27 49 27 C 49.550781 27 50 27.449219 50 28 L 50 46.914062 C 50 47.464844 49.550781 47.914062 49 47.914062 Z M 49 47.914062 "/>
<path style=" stroke:none;fill-rule:nonzero;fill:rgb(12.156863%,12.941177%,16.862746%);fill-opacity:1;" d="M 86 24 L 88 24 L 88 122 L 86 122 Z M 86 24 "/>
<path style=" stroke:none;fill-rule:nonzero;fill:rgb(12.156863%,12.941177%,16.862746%);fill-opacity:1;" d="M 150.335938 103.945312 L 149.691406 102.054688 C 154.421875 100.441406 159.710938 97.917969 160.035156 96.734375 C 160.84375 93.816406 161.65625 77.765625 161.988281 69.34375 L 150.707031 55.636719 L 152.25 54.363281 L 163.773438 68.363281 C 163.929688 68.554688 164.007812 68.792969 164 69.039062 C 163.960938 70.027344 163.046875 93.34375 161.964844 97.265625 C 161.195312 100.050781 152.867188 103.085938 150.335938 103.945312 Z M 150.335938 103.945312 "/>
</g>
</svg>
