<svg width="24" height="24" xmlns="http://www.w3.org/2000/svg">

 <g>
  <title>background</title>
  <rect fill="none" id="canvas_background" height="402" width="582" y="-1" x="-1"/>
 </g>
 <g>
  <title>Layer 1</title>
  <path stroke="#ffffff" fill="#00bfff" id="svg_2" d="m19.7,0.5l-15.4,0c-2.1,0 -3.8,1.7 -3.8,3.8l0,15.4c0,2.1 1.7,3.8 3.8,3.8l15.4,0c2.1,0 3.8,-1.7 3.8,-3.8l0,-15.4c0,-2.1 -1.7,-3.8 -3.8,-3.8zm-0.6,16.4c0,0.3 -0.2,0.5 -0.5,0.5l-10.2,0c-1.9,0 -3.5,-1.6 -3.5,-3.5l0,-6.8c0,-0.3 0.2,-0.5 0.5,-0.5l2.8,0c0.3,0 0.5,0.2 0.5,0.5l0,6.1c0,0.1 0,0.1 0.1,0.1l1.5,0l0,-6.2c0,-0.3 0.2,-0.5 0.5,-0.5l2.6,0c0.3,0 0.5,0.2 0.5,0.5l0,6.2l1.6,0l0,-6.2c0,-0.3 0.2,-0.5 0.5,-0.5l2.8,0c0.3,0 0.5,0.2 0.5,0.5l0,9.8l-0.2,0z"/>
 </g>
</svg>